<svg preserveAspectRatio="none" overflow="visible" style="display: block;" width="111.92" height="29.9031" viewBox="0 0 111.92 29.9031" fill="none" xmlns="http://www.w3.org/2000/svg">
<g id="Group 300">
<g id="overlap">
<path d="M8.36929 22.3082C6.78081 22.3082 5.35118 21.9607 4.0804 21.2657C2.80962 20.5509 1.80689 19.5482 1.07222 18.2576C0.357407 16.9669 0 15.4777 0 13.79C0 12.1022 0.367335 10.613 1.10201 9.32238C1.85653 8.03174 2.87912 7.03894 4.16975 6.34398C5.46039 5.62917 6.89995 5.27176 8.48843 5.27176C10.0769 5.27176 11.5165 5.62917 12.8071 6.34398C14.0977 7.03894 15.1104 8.03174 15.8451 9.32238C16.5996 10.613 16.9769 12.1022 16.9769 13.79C16.9769 15.4777 16.5897 16.9669 15.8153 18.2576C15.0608 19.5482 14.0282 20.5509 12.7177 21.2657C11.4271 21.9607 9.97763 22.3082 8.36929 22.3082ZM8.36929 18.6745C9.12382 18.6745 9.82871 18.4958 10.484 18.1384C11.1591 17.7612 11.6952 17.2052 12.0923 16.4705C12.4894 15.7359 12.688 14.8423 12.688 13.79C12.688 12.2213 12.271 11.0201 11.437 10.1861C10.6229 9.3323 9.62022 8.9054 8.42886 8.9054C7.2375 8.9054 6.23477 9.3323 5.42068 10.1861C4.62644 11.0201 4.22932 12.2213 4.22932 13.79C4.22932 15.3586 4.61651 16.5698 5.3909 17.4236C6.18513 18.2576 7.17793 18.6745 8.36929 18.6745Z" fill="#101A20"/>
<path d="M25.1286 18.198L29.2983 5.53981H33.7361L27.6304 22.0401H22.5672L16.4912 5.53981H20.9588L25.1286 18.198Z" fill="#101A20"/>
<path d="M49.6298 13.4326C49.6298 14.0282 49.5901 14.5644 49.5107 15.0409H37.4482C37.5475 16.2323 37.9645 17.1655 38.6991 17.8406C39.4338 18.5157 40.3372 18.8532 41.4095 18.8532C42.9582 18.8532 44.0602 18.1881 44.7155 16.8577H49.2129C48.7363 18.4462 47.8229 19.7567 46.4727 20.7892C45.1225 21.8019 43.4646 22.3082 41.4988 22.3082C39.9103 22.3082 38.4807 21.9607 37.2099 21.2657C35.959 20.5509 34.9761 19.5482 34.2613 18.2576C33.5664 16.9669 33.2189 15.4777 33.2189 13.79C33.2189 12.0824 33.5664 10.5832 34.2613 9.29259C34.9563 8.00195 35.9292 7.00916 37.1801 6.3142C38.4311 5.61924 39.8706 5.27176 41.4988 5.27176C43.0674 5.27176 44.4673 5.60931 45.6984 6.28441C46.9493 6.95952 47.9123 7.92253 48.5874 9.17346C49.2824 10.4045 49.6298 11.8242 49.6298 13.4326ZM45.3112 12.2412C45.2913 11.169 44.9041 10.3152 44.1496 9.67978C43.3951 9.02454 42.4718 8.69691 41.3797 8.69691C40.3472 8.69691 39.4735 9.01461 38.7587 9.65C38.0637 10.2655 37.6368 11.1293 37.478 12.2412H45.3112Z" fill="#101A20"/>
<path d="M55.0561 8.10123C55.5922 7.22757 56.2872 6.54254 57.141 6.04614C58.0146 5.54974 59.0074 5.30154 60.1194 5.30154V9.67978H59.0174C57.7069 9.67978 56.7141 9.98755 56.039 10.6031C55.3837 11.2186 55.0561 12.2908 55.0561 13.8198V22.0401H50.8863V5.53981H55.0561V8.10123Z" fill="#101A20"/>
<path d="M65.3106 0V22.0401H61.1409V0H65.3106Z" fill="#101A20"/>
<path d="M66.5711 13.7304C66.5711 12.0625 66.8987 10.5832 67.554 9.29259C68.2291 8.00195 69.1325 7.00916 70.2643 6.3142C71.416 5.61924 72.6967 5.27176 74.1064 5.27176C75.3375 5.27176 76.4097 5.51996 77.3231 6.01636C78.2563 6.51276 79.0009 7.13822 79.5569 7.89275V5.53981H83.7564V22.0401H79.5569V19.6276C79.0208 20.402 78.2762 21.0473 77.3231 21.5636C76.3899 22.06 75.3077 22.3082 74.0766 22.3082C72.6867 22.3082 71.416 21.9508 70.2643 21.236C69.1325 20.5211 68.2291 19.5184 67.554 18.2278C66.8987 16.9173 66.5711 15.4182 66.5711 13.7304ZM79.5569 13.79C79.5569 12.7773 79.3583 11.9136 78.9612 11.1988C78.5641 10.4641 78.028 9.90813 77.3529 9.53086C76.6778 9.13374 75.953 8.93518 75.1787 8.93518C74.4043 8.93518 73.6895 9.12382 73.0342 9.50108C72.379 9.87834 71.8429 10.4343 71.4259 11.169C71.0288 11.8838 70.8302 12.7376 70.8302 13.7304C70.8302 14.7232 71.0288 15.5969 71.4259 16.3514C71.8429 17.0861 72.379 17.652 73.0342 18.0491C73.7093 18.4462 74.4241 18.6448 75.1787 18.6448C75.953 18.6448 76.6778 18.4561 77.3529 18.0789C78.028 17.6817 78.5641 17.1258 78.9612 16.411C79.3583 15.6763 79.5569 14.8026 79.5569 13.79Z" fill="#101A20"/>
<path d="M90.2116 7.92253C90.7478 7.168 91.4824 6.54254 92.4157 6.04614C93.3687 5.52989 94.4509 5.27176 95.6621 5.27176C97.0719 5.27176 98.3427 5.61924 99.4744 6.3142C100.626 7.00916 101.53 8.00195 102.185 9.29259C102.86 10.5634 103.197 12.0426 103.197 13.7304C103.197 15.4182 102.86 16.9173 102.185 18.2278C101.53 19.5184 100.626 20.5211 99.4744 21.236C98.3427 21.9508 97.0719 22.3082 95.6621 22.3082C94.4509 22.3082 93.3787 22.06 92.4454 21.5636C91.5321 21.0672 90.7875 20.4417 90.2116 19.6872V29.9031H86.0419V5.53981H90.2116V7.92253ZM98.9383 13.7304C98.9383 12.7376 98.7299 11.8838 98.3129 11.169C97.9158 10.4343 97.3796 9.87834 96.7045 9.50108C96.0493 9.12382 95.3345 8.93518 94.5601 8.93518C93.8056 8.93518 93.0908 9.13374 92.4157 9.53086C91.7604 9.90813 91.2243 10.4641 90.8073 11.1988C90.4102 11.9334 90.2116 12.7972 90.2116 13.79C90.2116 14.7828 90.4102 15.6465 90.8073 16.3812C91.2243 17.1158 91.7604 17.6817 92.4157 18.0789C93.0908 18.4561 93.8056 18.6448 94.5601 18.6448C95.3345 18.6448 96.0493 18.4462 96.7045 18.0491C97.3796 17.652 97.9158 17.0861 98.3129 16.3514C98.7299 15.6167 98.9383 14.7431 98.9383 13.7304Z" fill="#101A20"/>
</g>
<rect id="brand-dot" x="105.715" y="16.2867" width="6.20499" height="6.20499" rx="3.1025" fill="#06A5E9"/>
</g>
</svg>
